<?xml version="1.0" encoding="UTF-8"?>
<svg version="1.1" xmlns="http://www.w3.org/2000/svg" width="16" height="16">
<path d="M0 0 C1.92328273 2.4618019 1.79423278 3.43390023 1.625 6.5 C1.08829057 9.79539591 0.83418937 10.73607319 -1.625 13.125 C-5.03615249 14.18624744 -7.01703008 13.96665454 -10.4375 13 C-13.4375 11 -13.4375 11 -13.90625 8.72265625 C-13.99028655 1.56904498 -13.99028655 1.56904498 -11.3125 -1.1875 C-6.9714426 -2.41432057 -4.10303317 -1.68329566 0 0 Z M-2.4375 3 C-2.4375 4.65 -2.4375 6.3 -2.4375 8 C-2.1075 8 -1.7775 8 -1.4375 8 C-1.4375 6.35 -1.4375 4.7 -1.4375 3 C-1.7675 3 -2.0975 3 -2.4375 3 Z M-7.4375 5 C-7.4375 6.65 -7.4375 8.3 -7.4375 10 C-6.4475 10.495 -6.4475 10.495 -5.4375 11 C-5.7675 9.02 -6.0975 7.04 -6.4375 5 C-6.7675 5 -7.0975 5 -7.4375 5 Z " fill="#FFFFFF" transform="translate(14.4375,2)"/>
</svg>
