<?xml version="1.0" encoding="UTF-8"?><svg id="a" xmlns="http://www.w3.org/2000/svg" viewBox="0 0 252.43 252.43"><defs><style>.b{fill:#030620;}.c{fill:#fff;}</style></defs><rect class="b" x="0" width="252.43" height="252.43" rx="26" ry="26"/><path class="c" d="M125.65,236.22l-94.79-55.7v-109.3L125.65,16.21l95.92,54.19v85.27l-26.17-15.65.23-54.77-69.42-38.58-67.97,37.65-.7,79.58,69.8,42.34,16.96-9.73,24.45,16.02-43.1,23.69ZM102.95,112.87l23.27-12.64,22.84,11.94-22.84,14.04v29.02l67.55,39.79,25.98-14.04-69.28-39.32,24.11-12.87v-34.64l-47.28-27.38-52.43,28.09v59.22l27.38,15.92.7-57.11Z"/></svg>